<?xml version="1.0" encoding="iso-8859-1"?>
<!-- Generator: Adobe Illustrator 19.0.0, SVG Export Plug-In . SVG Version: 6.00 Build 0)  -->
<svg version="1.1" id="Capa_1" xmlns="http://www.w3.org/2000/svg" xmlns:xlink="http://www.w3.org/1999/xlink" x="0px" y="0px"
	 viewBox="0 0 368.008 368.008" style="enable-background:new 0 0 368.008 368.008;" xml:space="preserve">
<g>
	<g>
		<path d="M264.004,48h-160c-4.416,0-8,3.584-8,8s3.584,8,8,8h160c4.424,0,8-3.584,8-8S268.428,48,264.004,48z"/>
	</g>
</g>
<g>
	<g>
		<path d="M120.004,272h-24v-24c0-4.416-3.584-8-8-8s-8,3.584-8,8v24h-24c-4.416,0-8,3.584-8,8c0,4.416,3.584,8,8,8h24v24
			c0,4.416,3.584,8,8,8s8-3.584,8-8v-24h24c4.416,0,8-3.584,8-8C128.004,275.584,124.42,272,120.004,272z"/>
	</g>
</g>
<g>
	<g>
		<path d="M312.004,240h-144c-4.416,0-8,3.584-8,8v64c0,4.416,3.584,8,8,8h144c4.424,0,8-3.584,8-8v-64
			C320.004,243.584,316.428,240,312.004,240z M304.004,304h-128v-48h128V304z"/>
	</g>
</g>
<g>
	<g>
		<path d="M264.004,96h-160c-4.416,0-8,3.584-8,8s3.584,8,8,8h160c4.424,0,8-3.584,8-8S268.428,96,264.004,96z"/>
	</g>
</g>
<g>
	<g>
		<path d="M264.004,144h-96c-4.416,0-8,3.584-8,8s3.584,8,8,8h96c4.424,0,8-3.584,8-8S268.428,144,264.004,144z"/>
	</g>
</g>
<g>
	<g>
		<path d="M344.004,64h-24V8c0-4.416-3.576-8-8-8h-256c-4.416,0-8,3.584-8,8v56h-24c-13.232,0-24,10.768-24,24v248
			c0,23.592,12.392,32,24,32.008h306.248c6.112,0,10.544,0,13.752-0.272V368c13.232,0,24-10.768,24-24V88
			C368.004,74.768,357.236,64,344.004,64z M64.004,16h240v176h-240V16z M16.004,88c0-4.416,3.592-8,8-8h24v112h-32V88z M352.004,344
			c0,4.408-3.584,8-8.024,8c-1.872,0-319.976,0-319.976,0c-7.224,0-8-11.192-8-16.008V208h336V344z M352.004,192h-32V80h24
			c4.416,0,8,3.592,8,8V192z"/>
	</g>
</g>
<g>
</g>
<g>
</g>
<g>
</g>
<g>
</g>
<g>
</g>
<g>
</g>
<g>
</g>
<g>
</g>
<g>
</g>
<g>
</g>
<g>
</g>
<g>
</g>
<g>
</g>
<g>
</g>
<g>
</g>
</svg>
