<svg id="Capa_1" enable-background="new 0 0 511.934 511.934" height="512" viewBox="0 0 511.934 511.934" width="512" xmlns="http://www.w3.org/2000/svg"><g><g><g><path d="m453.736 408.548c11.75-11.624 19.04-27.748 19.04-45.542 0-35.338-28.75-64.087-64.088-64.087s-64.087 28.75-64.087 64.087c0 17.795 7.29 33.919 19.04 45.542-12.819 3.051-23.873 10.705-31.313 21.111-7.44-10.406-18.494-18.06-31.313-21.111 11.75-11.624 19.04-27.748 19.04-45.543 0-35.338-28.75-64.087-64.088-64.087s-64.088 28.75-64.088 64.087c0 17.795 7.29 33.919 19.04 45.543-12.819 3.051-23.873 10.704-31.313 21.111-7.44-10.406-18.494-18.061-31.313-21.111 11.75-11.624 19.04-27.748 19.04-45.542 0-35.338-28.75-64.087-64.087-64.087-35.338 0-64.088 28.75-64.088 64.087 0 17.795 7.29 33.919 19.04 45.542-23.662 5.631-41.313 26.947-41.313 52.308v41.079c0 5.523 4.477 10 10 10h183.876c5.523 0 10-4.477 10-10s-4.477-10-10-10h-21.155v-31.079c0-18.617 15.146-33.762 33.762-33.762h65.197c18.617 0 33.762 15.146 33.762 33.762v31.079h-21.154c-5.523 0-10 4.477-10 10s4.477 10 10 10h183.875c5.523 0 10-4.477 10-10v-41.079c.001-25.361-17.65-46.677-41.312-52.308zm-350.49-89.63c24.31 0 44.087 19.777 44.087 44.087s-19.777 44.088-44.087 44.088-44.088-19.778-44.088-44.088 19.778-44.087 44.088-44.087zm-66.361 141.938c0-18.617 15.146-33.762 33.762-33.762h65.198c18.616 0 33.762 15.146 33.762 33.762v31.079h-132.722zm219.082-141.938c24.31 0 44.088 19.777 44.088 44.087s-19.778 44.088-44.088 44.088-44.088-19.778-44.088-44.088 19.778-44.087 44.088-44.087zm152.721 0c24.31 0 44.088 19.777 44.088 44.087s-19.778 44.088-44.088 44.088-44.087-19.778-44.087-44.088 19.777-44.087 44.087-44.087zm66.361 173.016h-132.721v-31.079c0-18.617 15.146-33.762 33.762-33.762h65.198c18.616 0 33.762 15.146 33.762 33.762v31.079z"/><path d="m265.387 498.104c-1.609-3.863-5.587-6.377-9.771-6.151-4.157.225-7.823 3.095-9.029 7.079-1.187 3.921.197 8.344 3.474 10.832 3.386 2.57 8.094 2.727 11.636.379 3.94-2.609 5.477-7.781 3.69-12.139z"/><path d="m181.06 191.849c.431.056.861.083 1.29.083 2.634 0 5.183-1.042 7.071-2.929l116.453-116.451c2.194-2.194 3.246-5.283 2.845-8.361-.4-3.077-2.207-5.794-4.889-7.354-37.294-21.692-84.648-15.535-115.153 14.97-30.505 30.506-36.662 77.858-14.971 115.153 1.56 2.683 4.277 4.489 7.354 4.889zm21.759-105.901c20.898-20.897 51.808-27.326 78.861-17.488l-96.351 96.351c-9.838-27.054-3.408-57.964 17.49-78.863z"/><path d="m203.215 214.004c.4 3.077 2.207 5.794 4.889 7.355 14.9 8.666 31.4 12.886 47.796 12.886 24.642 0 49.04-9.54 67.357-27.857 30.505-30.506 36.661-77.858 14.97-115.153-1.56-2.683-4.277-4.489-7.354-4.889-3.075-.401-6.166.651-8.361 2.845l-116.452 116.452c-2.194 2.195-3.245 5.284-2.845 8.361zm123.389-100.62c9.839 27.054 3.409 57.963-17.488 78.861-20.899 20.898-51.809 27.329-78.862 17.489z"/><path d="m255.968 278.195c35.632 0 71.276-13.568 98.403-40.694 54.259-54.26 54.259-142.547 0-196.807-54.26-54.259-142.547-54.259-196.807 0-26.284 26.285-40.76 61.231-40.76 98.403s14.476 72.119 40.76 98.403c27.133 27.133 62.763 40.695 98.404 40.695zm-84.262-223.358c23.23-23.231 53.746-34.846 84.261-34.846s61.03 11.615 84.261 34.846c46.462 46.461 46.462 122.06 0 168.521-46.462 46.462-122.061 46.461-168.522 0-22.507-22.506-34.902-52.431-34.902-84.26s12.395-61.754 34.902-84.261z"/></g></g></g></svg>