<svg id="Capa_1" enable-background="new 0 0 512 512" height="512" viewBox="0 0 512 512" width="512" xmlns="http://www.w3.org/2000/svg"><g><path d="m102.539 202.295v-118.713c0-16.252-13.223-29.475-29.476-29.475s-29.474 13.223-29.474 29.475v118.714c-9.18 8.304-14.375 19.937-14.375 32.465 0 24.179 19.67 43.85 43.849 43.85s43.85-19.671 43.85-43.85c.001-12.529-5.194-24.161-14.374-32.466zm-29.475-133.159c7.966 0 14.446 6.48 14.446 14.446v26.344h-28.891v-26.344c0-7.965 6.48-14.446 14.445-14.446zm0 194.445c-15.891 0-28.82-12.929-28.82-28.821 0-9.083 4.158-17.451 11.407-22.96 1.87-1.421 2.968-3.635 2.968-5.983v-80.861h28.891v80.861c0 2.349 1.098 4.562 2.968 5.983 7.25 5.508 11.407 13.877 11.407 22.96 0 15.892-12.929 28.821-28.821 28.821z"/><path d="m267.733 496.971h-41.191v-81.175c0-4.15-3.364-7.515-7.515-7.515s-7.515 3.365-7.515 7.515v35.453h-56.829v-26.807c0-30.84 10.762-60.922 30.304-84.704 17.278-21.027 40.667-36.317 66.598-43.72 3.098 25.933 25.215 46.109 51.969 46.109s48.871-20.177 51.968-46.111c19.795 5.639 38.121 15.848 53.444 29.855 3.055 2.794 7.811 2.593 10.616-.476 2.8-3.064 2.587-7.817-.475-10.617-15.375-14.055-33.478-24.66-53.046-31.214 17.076-13.221 29.874-31.714 35.922-53.02 3.405 1.013 6.954 1.542 10.552 1.542 20.42 0 37.032-16.612 37.032-37.032 0-7.992-2.553-15.394-6.874-21.452 18.55-46.048 18.636-90.845.095-123.481-11.407-20.079-28.872-33.07-47.916-35.644-20.018-2.705-35.658 1.788-43.902 5.108-2.14-2.489-5.206-5.385-9.493-8.166-12.727-8.255-30.393-12.07-52.526-11.328-18.284.609-35.461 7.792-54.056 22.606-3.247 2.586-3.782 7.314-1.196 10.56 2.587 3.246 7.313 3.781 10.56 1.195 15.941-12.699 30.301-18.845 45.193-19.341 41.453-1.365 51.36 15.678 52.035 16.946 1.504 4.235 6.958 5.932 10.715 3.506.163-.094 16.612-9.443 40.658-6.193 14.356 1.94 27.79 12.209 36.861 28.174 7.534 13.262 22.004 49.197 1.038 105.29-5.384-3.057-11.6-4.813-18.222-4.813-2.247 0-4.486.213-6.686.617v-1.24c0-10.458-4.336-20.455-11.895-27.429-6.538-6.031-14.057-14.424-22.369-24.964v-13.057c0-12.431-10.113-22.544-22.544-22.544h-90.974c-12.43 0-22.544 10.113-22.544 22.544v33.925c0 1.373.13 2.715.367 4.021-5.539 1.564-11.043 2.902-16.433 3.955-10.545 2.06-18.198 11.363-18.198 22.12v2.669c-2.2-.404-4.438-.617-6.686-.617-4.045 0-7.936.661-11.582 1.865-6.77-11.058-21.979-39.836-23.596-77.388 6.807.695 16.372.909 25.443-1.538 13.155-3.546 25.013-14.857 37.568-26.832 3.003-2.865 3.115-7.621.25-10.624-2.864-3.004-7.621-3.115-10.624-.251-10.642 10.15-21.646 20.646-31.108 23.197-12.498 3.369-27.292-.023-27.427-.055-4.508-1.193-9.304 2.534-9.253 7.2-.669 45.495 17.288 80.146 25.699 93.835-7.604 6.787-12.403 16.653-12.403 27.624 0 20.42 16.612 37.032 37.032 37.032 3.599 0 7.147-.529 10.553-1.542 6.047 21.304 18.843 39.796 35.917 53.017-26.284 8.824-49.888 24.999-67.667 46.636-21.747 26.463-33.722 59.934-33.722 94.245v80.044c0 4.15 3.364 7.515 7.515 7.515h120.564c4.151 0 7.515-3.365 7.515-7.515-.001-4.151-3.365-7.515-7.516-7.515zm138.117-294.324v-28.554c2.152-.685 4.411-1.042 6.686-1.042 12.132 0 22.003 9.87 22.003 22.003s-9.871 22.003-22.003 22.003c-2.582 0-5.123-.454-7.519-1.327.549-4.286.833-8.652.833-13.083zm-211.276 14.409c-12.132 0-22.003-9.87-22.003-22.003s9.871-22.003 22.003-22.003c2.275 0 4.534.357 6.686 1.042v28.554c0 4.432.284 8.798.833 13.082-2.396.874-4.936 1.328-7.519 1.328zm108.981 110.042c-17.659 0-32.482-12.331-36.338-28.831 11.298 4.308 23.546 6.675 36.338 6.675s25.04-2.367 36.337-6.675c-3.856 16.5-18.679 28.831-36.337 28.831zm-53.002-235.15c0-4.144 3.371-7.515 7.515-7.515h90.974c4.144 0 7.515 3.371 7.515 7.515v33.925c0 4.144-3.371 7.515-7.515 7.515h-90.974c-4.144 0-7.515-3.371-7.515-7.515zm-34.264 110.699v-46.677c0-3.586 2.544-6.685 6.049-7.37 7.015-1.37 14.193-3.176 21.395-5.339 3.899 3.22 8.895 5.157 14.335 5.157h90.974c11.605 0 21.188-8.816 22.409-20.102 4.358 4.911 8.474 9.159 12.313 12.7 4.484 4.138 7.057 10.109 7.057 16.383v45.248c0 48.119-39.148 87.266-87.266 87.266s-87.266-39.148-87.266-87.266zm-4.776 294.324h-56.829v-30.693h56.829z"/><path d="m429.616 336.738c-3.384 2.404-4.178 7.095-1.775 10.478 16.084 22.644 24.586 49.349 24.586 77.225v26.807h-56.829v-35.453c0-4.15-3.364-7.515-7.515-7.515s-7.515 3.365-7.515 7.515v81.175h-82.776c-4.151 0-7.515 3.365-7.515 7.515s3.364 7.515 7.515 7.515h162.149c4.151 0 7.515-3.365 7.515-7.515v-80.044c0-31.014-9.462-60.727-27.363-85.929-2.402-3.382-7.095-4.178-10.477-1.774zm22.811 160.233h-56.829v-30.693h56.829z"/><path d="m248.105 189.916c.506-.061 12.508-1.549 23.074-6.145 3.806-1.656 5.549-6.083 3.894-9.888-1.656-3.806-6.084-5.551-9.888-3.894-8.511 3.701-18.788 4.995-18.89 5.007-4.116.501-7.049 4.243-6.552 8.361.461 3.814 3.703 6.614 7.451 6.614.302.001.605-.017.911-.055z"/><path d="m335.93 183.771c10.566 4.595 22.569 6.084 23.075 6.145.306.037.61.055.911.055 3.748 0 6.99-2.8 7.451-6.615.497-4.12-2.439-7.864-6.56-8.361-.102-.012-10.307-1.276-18.884-5.006-3.81-1.657-8.234.088-9.888 3.894s.089 8.233 3.895 9.888z"/><path d="m288.912 249.097c4.151 0 7.515-3.364 7.515-7.515 0-5.148 3.264-9.497 7.128-9.497s7.128 4.349 7.128 9.497c0 4.15 3.364 7.515 7.515 7.515s7.515-3.364 7.515-7.515c0-13.523-9.939-24.526-22.158-24.526-12.218 0-22.157 11.002-22.157 24.526 0 4.15 3.364 7.515 7.514 7.515z"/><path d="m181.164 252.969c3.035-2.791 3.256-7.511.484-10.574-2.786-3.077-7.538-3.313-10.613-.529-.496.449-12.098 11.151-9.288 26.294 1.413 7.617 4.855 11.829 7.369 14.904 2.56 3.132 3.97 4.858 3.97 10.554 0 4.15 3.364 7.515 7.515 7.515s7.515-3.365 7.515-7.515c0-11.057-4.082-16.051-7.363-20.065-2.118-2.591-3.518-4.304-4.228-8.134-1.248-6.724 4.437-12.257 4.639-12.45z"/><path d="m426.358 273.552c-3.281 4.014-7.363 9.008-7.363 20.065 0 4.15 3.364 7.515 7.515 7.515s7.515-3.365 7.515-7.515c0-5.696 1.41-7.422 3.97-10.554 2.514-3.075 5.956-7.287 7.369-14.904 2.81-15.143-8.794-25.846-9.289-26.295-3.078-2.785-7.855-2.571-10.639.507-2.785 3.078-2.572 7.807.505 10.591.06.056 5.909 5.645 4.646 12.455-.711 3.832-2.11 5.544-4.229 8.135z"/><path d="m473.747 249.246c-.37-.478-.825-.9-1.284-1.286-1.274-.988-2.878-1.571-4.615-1.571-4.16 0-7.532 3.372-7.532 7.532 0 2.034.81 3.876 2.12 5.231 0 0 .114.117.173.174 1.02 1.032 6.166 6.755 4.964 16.04-.766 5.924-3.806 9.704-7.656 14.489-4.963 6.171-11.14 13.85-11.14 26.869 0 4.15 3.364 7.515 7.515 7.515s7.515-3.365 7.515-7.515c0-7.724 3.452-12.016 7.822-17.449 4.472-5.559 9.54-11.861 10.849-21.98 1.916-14.807-5.61-24.667-8.731-28.049z"/><path d="m150.819 324.239c4.151 0 7.515-3.365 7.515-7.515 0-13.018-6.177-20.698-11.14-26.869-3.849-4.785-6.889-8.565-7.656-14.489-1.202-9.285 3.944-15.008 4.964-16.04.059-.057.173-.174.173-.174 1.31-1.355 2.12-3.197 2.12-5.231 0-4.16-3.372-7.532-7.532-7.532-1.737 0-3.341.583-4.615 1.571-.459.385-.914.808-1.284 1.286-3.122 3.382-10.647 13.243-8.731 28.05 1.309 10.119 6.378 16.421 10.849 21.98 4.37 5.433 7.822 9.725 7.822 17.449 0 4.149 3.364 7.514 7.515 7.514z"/></g></svg>