<svg id="Capa_1" enable-background="new 0 0 512.443 512.443" height="512" viewBox="0 0 512.443 512.443" width="512" xmlns="http://www.w3.org/2000/svg"><g><path d="m242.673 212.61-33.837 33.837c-2.929 2.93-2.929 7.678 0 10.607 1.464 1.464 3.384 2.196 5.303 2.196s3.839-.732 5.303-2.196l33.837-33.837c6.091-6.092 14.19-9.446 22.805-9.446h72.832c8.614 0 16.713 3.354 22.804 9.446l24.133 24.133c1.407 1.406 3.314 2.196 5.304 2.196h103.373c4.143 0 7.5-3.357 7.5-7.5s-3.357-7.5-7.5-7.5h-100.267l-21.936-21.937c-8.925-8.924-20.79-13.839-33.411-13.839h-72.832c-12.62.001-24.487 4.917-33.411 13.84z"/><path d="m196.748 279.749c2.929-2.93 2.929-7.678 0-10.607-2.929-2.928-7.678-2.928-10.606 0l-11.922 11.922c-14.079 14.079-14.079 36.988 0 51.068 7.04 7.039 16.287 10.559 25.533 10.559 9.247 0 18.494-3.52 25.534-10.559l24.887-24.888c9.621 7.346 21.32 11.322 33.632 11.322h18.198c14.843 0 28.795-5.779 39.288-16.272l6.898-6.898 16.495 16.496c1.465 1.465 3.384 2.197 5.304 2.197 1.919 0 3.839-.732 5.303-2.196 2.93-2.929 2.93-7.678.001-10.606l-16.496-16.497 9.343-9.343c2.929-2.93 2.929-7.678 0-10.607-2.93-2.928-7.678-2.928-10.607 0l-26.848 26.849c-7.659 7.66-17.845 11.879-28.681 11.879h-18.198c-10.835 0-21.021-4.219-28.681-11.88-1.406-1.406-3.314-2.196-5.303-2.196s-3.897.79-5.303 2.196l-29.837 29.838c-8.231 8.23-21.624 8.229-29.854.001-8.231-8.231-8.231-21.624 0-29.854z"/><path d="m504.53 378.893h-67.842c.852-9.043-2.176-18.387-9.086-25.297l-29.616-29.616c-2.93-2.928-7.678-2.928-10.607 0-2.929 2.93-2.929 7.678 0 10.607l29.616 29.616c3.127 3.126 4.849 7.283 4.849 11.705 0 4.421-1.722 8.578-4.848 11.704-6.454 6.454-16.957 6.454-23.409 0l-42.262-42.262c-2.93-2.928-7.678-2.928-10.607 0-2.929 2.93-2.929 7.678 0 10.607l30.769 30.769c.003.003.006.007.009.01l17.535 17.535c6.454 6.454 6.454 16.955 0 23.409-6.454 6.456-16.957 6.454-23.409 0l-16.062-16.06c-.007-.007-.013-.014-.02-.021l-12.705-12.704-32.688-32.688c-2.93-2.928-7.678-2.928-10.607 0-2.929 2.93-2.929 7.678 0 10.607l45.413 45.413c6.435 6.456 6.429 16.941-.018 23.389-6.452 6.455-16.955 6.456-23.409 0l-6.536-6.536-38.613-38.613c-2.93-2.928-7.678-2.928-10.607 0-2.929 2.93-2.929 7.678 0 10.607l38.613 38.613c3.127 3.126 4.849 7.283 4.849 11.704 0 4.422-1.722 8.579-4.849 11.706-3.126 3.126-7.282 4.848-11.704 4.848-4.421 0-8.578-1.722-11.704-4.849l-12.047-12.047c.194-1.424.3-2.869.3-4.331 0-8.429-3.282-16.353-9.242-22.313-5.959-5.959-13.883-9.241-22.312-9.241-.865 0-1.722.043-2.574.112.068-.852.112-1.71.112-2.574 0-8.429-3.282-16.352-9.242-22.312-6.81-6.81-15.982-9.843-24.903-9.114.729-8.92-2.305-18.093-9.114-24.902-5.959-5.96-13.883-9.242-22.311-9.242-.865 0-1.722.043-2.574.112.068-.852.112-1.71.112-2.574 0-8.429-3.282-16.353-9.242-22.312-5.959-5.96-13.883-9.242-22.311-9.242-8.429 0-16.352 3.282-22.312 9.241l-24.172 24.172c-5.96 5.96-9.242 13.884-9.242 22.312 0 4.793 1.064 9.422 3.076 13.62h-69.064c-4.142 0-7.5 3.357-7.5 7.5s3.358 7.5 7.5 7.5h84.223c4.118 1.919 8.639 2.934 13.317 2.934.865 0 1.722-.043 2.574-.112-.068.852-.112 1.71-.112 2.574 0 8.429 3.282 16.352 9.242 22.312 6.152 6.151 14.23 9.227 22.312 9.227.859 0 1.719-.042 2.576-.112-.069.857-.113 1.72-.113 2.59 0 8.428 3.282 16.352 9.242 22.311 5.959 5.96 13.883 9.242 22.311 9.242.865 0 1.722-.043 2.574-.112-.068.852-.112 1.71-.112 2.574 0 8.429 3.282 16.353 9.242 22.312 5.959 5.96 13.883 9.242 22.311 9.242 8.429 0 16.352-3.282 22.312-9.241l24.172-24.172c.963-.963 1.847-1.981 2.668-3.04l7.714 7.714c5.96 5.959 13.884 9.241 22.312 9.241 8.429 0 16.353-3.282 22.312-9.241 5.308-5.309 8.485-12.178 9.117-19.573 2.921.878 5.987 1.334 9.123 1.334 8.429 0 16.353-3.282 22.313-9.241 4.273-4.273 7.16-9.56 8.458-15.314 5.666 4.398 12.494 6.606 19.328 6.606 8.08 0 16.16-3.075 22.312-9.227 8.364-8.364 11.034-20.293 8.025-30.941 7.27-.544 14.39-3.582 19.938-9.128 1.354-1.354 2.551-2.806 3.607-4.327h73.321c4.143 0 7.5-3.357 7.5-7.5s-3.359-7.5-7.502-7.5zm-399.077 16.502c-2.76 0-5.418-.672-7.786-1.937-.057-.032-.111-.069-.169-.1-1.359-.747-2.624-1.684-3.751-2.812-3.126-3.126-4.849-7.283-4.849-11.705 0-4.421 1.722-8.578 4.849-11.704l24.172-24.172v-.001c3.126-3.126 7.283-4.848 11.705-4.848 4.421 0 8.578 1.722 11.705 4.849 6.454 6.454 6.454 16.955 0 23.409l-24.172 24.173c-3.126 3.126-7.283 4.848-11.704 4.848zm22.311 29.167c-3.126-3.126-4.848-7.282-4.848-11.704 0-4.421 1.722-8.578 4.848-11.704l24.172-24.172c3.126-3.127 7.284-4.849 11.705-4.849s8.578 1.722 11.705 4.849c6.454 6.454 6.454 16.955 0 23.409l-24.171 24.171c-3.126 3.127-7.284 4.849-11.705 4.849s-8.58-1.723-11.706-4.849zm45.721 38.865c-4.421 0-8.578-1.722-11.705-4.849-3.126-3.126-4.849-7.283-4.849-11.704 0-4.422 1.722-8.578 4.849-11.704l24.171-24.172c3.126-3.127 7.284-4.849 11.705-4.849s8.579 1.722 11.705 4.849c3.126 3.126 4.848 7.282 4.848 11.704 0 4.421-1.722 8.578-4.848 11.704l-24.172 24.172c-3.125 3.127-7.283 4.849-11.704 4.849zm69.893 4.996-24.172 24.173c-3.126 3.126-7.283 4.848-11.705 4.848-4.421 0-8.578-1.722-11.705-4.849-3.126-3.126-4.849-7.283-4.849-11.705 0-4.421 1.722-8.578 4.849-11.704l24.172-24.172v-.001c3.126-3.126 7.283-4.848 11.705-4.848s8.579 1.722 11.705 4.849c6.454 6.454 6.454 16.955 0 23.409z"/><path d="m8.648 252.926h95.885c1.785 0 3.511-.637 4.869-1.795l19.066-16.272c5.621-4.797 12.786-7.438 20.174-7.438h57.397c4.142 0 7.5-3.357 7.5-7.5s-3.358-7.5-7.5-7.5h-57.397c-10.955 0-21.577 3.917-29.912 11.028l-16.962 14.478h-93.12c-4.142 0-7.5 3.357-7.5 7.5s3.358 7.499 7.5 7.499z"/><path d="m221.248 30.712c-4.142 0-7.5 3.357-7.5 7.5v4.281c-7.998 2.474-14.321 8.797-16.795 16.796h-4.281c-4.142 0-7.5 3.357-7.5 7.5s3.358 7.5 7.5 7.5h4.281c.471 1.522 1.085 2.982 1.82 4.368l-3.034 3.034c-2.929 2.93-2.929 7.678 0 10.607 1.464 1.464 3.384 2.196 5.303 2.196s3.839-.732 5.303-2.196l3.035-3.035c1.386.735 2.846 1.349 4.369 1.82v4.281c0 4.143 3.358 7.5 7.5 7.5s7.5-3.357 7.5-7.5v-4.281c10.37-3.208 17.925-12.885 17.925-24.295 0-4.285-1.07-8.323-2.95-11.869l3.035-3.035c2.929-2.929 2.928-7.678 0-10.606-2.93-2.928-7.677-2.929-10.607.001l-3.034 3.034c-1.386-.735-2.846-1.349-4.369-1.82v-4.281c-.001-4.143-3.359-7.5-7.501-7.5zm0 46.501c-5.749 0-10.425-4.677-10.425-10.425 0-5.749 4.677-10.426 10.425-10.426s10.425 4.677 10.425 10.426c0 5.748-4.677 10.425-10.425 10.425z"/><path d="m157.566 86.811c4.1.563 7.893-2.286 8.467-6.388 5.221-37.297 37.596-65.423 75.309-65.423 41.943 0 76.066 34.123 76.066 76.066 0 37.719-28.131 70.095-65.436 75.31-1.905.267-3.635 1.254-4.832 2.759l-5.799 7.292-5.799-7.292c-1.197-1.505-2.927-2.492-4.832-2.759-30.355-4.243-55.738-27.088-63.162-56.847-1.002-4.019-5.074-6.461-9.092-5.462-4.019 1.003-6.464 5.074-5.461 9.093 4.376 17.543 13.814 33.259 27.294 45.45 12.814 11.59 28.432 19.21 45.332 22.148l9.85 12.386c1.423 1.789 3.584 2.831 5.87 2.831s4.447-1.042 5.87-2.831l9.851-12.387c20.382-3.555 39.026-14.02 52.77-29.686 14.559-16.596 22.576-37.906 22.576-60.006 0-50.212-40.853-91.065-91.066-91.065-22.098 0-43.406 8.016-60.001 22.57-16.434 14.415-27.146 34.222-30.163 55.772-.574 4.103 2.286 7.894 6.388 8.469z"/><path d="m290.547 83.165c4.143 0 7.5-3.357 7.5-7.5s-3.357-7.5-7.5-7.5h-7.184c-4.143 0-7.5 3.357-7.5 7.5s3.357 7.5 7.5 7.5z"/><path d="m255.469 97.755-15.109 8.724c-10.512 6.07-14.126 19.562-8.058 30.074 2.94 5.093 7.688 8.735 13.368 10.258 1.897.508 3.821.759 5.733.759 3.815 0 7.581-1 10.973-2.959l15.108-8.723c5.093-2.94 8.736-7.688 10.258-13.368 1.522-5.681.741-11.613-2.199-16.706-6.07-10.512-19.561-14.13-30.074-8.059zm17.084 15.558c.938 1.623 1.186 3.514.701 5.323-.485 1.811-1.646 3.323-3.27 4.261l-15.108 8.723c-1.624.937-3.514 1.188-5.324.701-1.81-.485-3.323-1.646-4.259-3.269-1.935-3.35-.782-7.649 2.567-9.584l15.108-8.724c1.103-.636 2.307-.938 3.496-.938 2.427.002 4.792 1.259 6.089 3.507z"/><path d="m196.97 113.683c-4.142 0-7.5 3.357-7.5 7.5s3.358 7.5 7.5 7.5h4.297c4.142 0 7.5-3.357 7.5-7.5s-3.358-7.5-7.5-7.5z"/></g></svg>