<svg id="Capa_1" enable-background="new 0 0 510.981 510.981" height="512" viewBox="0 0 510.981 510.981" width="512" xmlns="http://www.w3.org/2000/svg"><path d="m504.311 71.022-66.198-66.197c-3.11-3.112-7.247-4.825-11.647-4.825-4.399 0-8.536 1.713-11.646 4.824l-18.117 18.117c-6.421 6.421-6.421 16.871 0 23.292l13.626 13.626-28.286 28.286-51.617 2.92-1.974-1.973c-4.066-4.067-9.473-6.307-15.225-6.307-5.751 0-11.157 2.24-15.223 6.306l-14.465 14.463c-8.395 8.395-8.395 22.054 0 30.448l1.05 1.05-29.639 29.639c-.002.002-.003.003-.005.005l-25.505 25.505c-.002.002-.003.003-.005.005l-16.906 16.906c-2.929 2.929-2.929 7.678 0 10.606 1.465 1.464 3.385 2.197 5.304 2.197s3.839-.732 5.304-2.197l11.607-11.607 18.563 18.563-58.916 58.916h-37.127l43.271-43.272c2.929-2.929 2.929-7.678 0-10.606-2.93-2.929-7.678-2.929-10.607 0l-83.498 83.499c-2.848 2.848-4.743 6.447-5.48 10.406l-6.45 34.613c-.518 2.776-.25 5.594.711 8.161l-12.084 12.084c-7.935 7.935-7.935 20.847.001 28.782l6.388 6.388-85.444 84.503c-2.945 2.913-2.972 7.661-.06 10.606 1.468 1.483 3.399 2.226 5.333 2.226 1.905 0 3.813-.722 5.273-2.167l85.504-84.562 6.446 6.446c3.844 3.844 8.955 5.961 14.392 5.961 5.436 0 10.547-2.117 14.391-5.961l12.095-12.096c1.703.637 3.509.983 5.346.983.932 0 1.869-.085 2.802-.259l34.615-6.451c3.96-.738 7.559-2.634 10.405-5.481l123.01-123.01 25.506-25.505c.002-.002.003-.004.005-.005l29.638-29.638 1.051 1.051c4.197 4.197 9.71 6.295 15.224 6.295s11.026-2.098 15.224-6.295l14.465-14.463c8.394-8.395 8.394-22.053 0-30.448l-6.667-6.667 2.92-51.616 28.286-28.286 13.626 13.626c3.211 3.211 7.428 4.816 11.646 4.816 4.217 0 8.436-1.605 11.647-4.816l18.115-18.116c3.111-3.111 4.825-7.248 4.825-11.647s-1.713-8.536-4.824-11.647zm-244.061 109.585 72.97 72.969-14.899 14.899-72.969-72.969zm42.955 102.984h-37.127l23.073-23.073 18.563 18.563zm-39.29-48.309 14.629 14.629-33.68 33.68h-29.258zm-148.218 91.083c.181-.969.645-1.849 1.342-2.546l25.227-25.227h37.127l-66.354 66.355-3.713-3.713c-.066-.066-.096-.16-.078-.253zm9.047 93.726c-1.011 1.011-2.354 1.567-3.783 1.567-1.43 0-2.773-.557-3.785-1.567l-23.44-23.44c-2.087-2.086-2.087-5.482 0-7.569l11.112-11.112 31.009 31.01zm65.264-23.302c-.696.697-1.577 1.161-2.547 1.341l-34.612 6.45c-.093.02-.189-.012-.256-.079l-3.712-3.713 13.356-13.355c2.929-2.929 2.929-7.677 0-10.606s-7.677-2.93-10.607 0l-13.355 13.355-14.629-14.629 76.962-76.962h29.258l-55.635 55.635c-2.929 2.929-2.929 7.678 0 10.606 1.465 1.464 3.385 2.197 5.304 2.197s3.839-.732 5.304-2.197l66.241-66.241h37.127zm153.819-153.82-72.97-72.969 24.34-24.34 72.969 72.969zm64.532-124.46c-1.303 1.303-2.08 3.04-2.185 4.879l-2.325 41.1-7.236-7.236c-2.93-2.929-7.678-2.929-10.607 0s-2.929 7.678 0 10.606l28.123 28.123c2.546 2.546 2.546 6.689.001 9.235l-14.464 14.463c-2.546 2.546-6.689 2.546-9.235 0l-96.283-96.283c-2.547-2.546-2.547-6.689-.001-9.235l14.465-14.464c1.233-1.233 2.873-1.913 4.616-1.913 1.744 0 3.384.679 4.617 1.913l45.561 45.56c2.929 2.928 7.677 2.93 10.607 0 2.929-2.929 2.929-7.678 0-10.606l-29.367-29.366 41.101-2.325c1.84-.104 3.576-.881 4.88-2.185l30.308-30.309 17.733 17.734zm85.345-34.8-18.115 18.116c-.573.573-1.507.575-2.08.001l-66.199-66.199c-.573-.574-.573-1.507 0-2.081l18.117-18.117c.355-.355.762-.43 1.039-.43.278 0 .685.075 1.04.431l66.199 66.199c.355.356.431.762.431 1.04-.001.278-.076.684-.432 1.04z"/></svg>