<?xml version="1.0" encoding="iso-8859-1"?>
<!-- Generator: Adobe Illustrator 19.0.0, SVG Export Plug-In . SVG Version: 6.00 Build 0)  -->
<svg version="1.1" id="Capa_1" xmlns="http://www.w3.org/2000/svg" xmlns:xlink="http://www.w3.org/1999/xlink" x="0px" y="0px"
	 viewBox="0 0 512 512" style="enable-background:new 0 0 512 512;" xml:space="preserve">
<g>
	<g>
		<path d="M261.722,93l-56-50H0v426h512V93H261.722z M482,439H30V173h452V439z M482,143H30V73h164.278l56,50H482V143z"/>
	</g>
</g>
<g>
	<g>
		<path d="M256,191c-63.411,0-115,51.589-115,115s51.589,115,115,115s115-51.589,115-115S319.411,191,256,191z M256,391
			c-46.869,0-85-38.131-85-85c0-46.869,38.131-85,85-85s85,38.131,85,85C341,352.869,302.869,391,256,391z"/>
	</g>
</g>
<g>
	<g>
		<polygon points="220.401,285.52 186.481,306.16 186.481,313.2 220.401,333.2 220.401,316.24 208.561,309.28 220.401,301.68 		"/>
	</g>
</g>
<g>
	<g>
		<polygon points="268.32,273.2 227.121,330 243.84,330 285.121,273.2 		"/>
	</g>
</g>
<g>
	<g>
		<polygon points="291.599,285.52 291.599,301.68 303.439,309.28 291.599,316.24 291.599,333.2 325.519,313.2 325.519,306.16 		"/>
	</g>
</g>
<g>
</g>
<g>
</g>
<g>
</g>
<g>
</g>
<g>
</g>
<g>
</g>
<g>
</g>
<g>
</g>
<g>
</g>
<g>
</g>
<g>
</g>
<g>
</g>
<g>
</g>
<g>
</g>
<g>
</g>
</svg>
