<svg id="line_icons" height="512" viewBox="0 0 74 74" width="512" xmlns="http://www.w3.org/2000/svg" data-name="line icons"><path d="m37 72a35 35 0 1 1 35-35 35.04 35.04 0 0 1 -35 35zm0-68a33 33 0 1 0 33 33 33.038 33.038 0 0 0 -33-33z"/><path d="m37 66.125a29.125 29.125 0 1 1 29.125-29.125 29.157 29.157 0 0 1 -29.125 29.125zm0-56.25a27.125 27.125 0 1 0 27.125 27.125 27.155 27.155 0 0 0 -27.125-27.125z"/><path d="m25.608 57.919a13.223 13.223 0 0 1 -3.286-.417 1 1 0 0 1 .22-1.968 8.97 8.97 0 0 0 4.217-1.191 8.82 8.82 0 0 0 -8.82-15.277 8.939 8.939 0 0 0 -3.118 3.024 1 1 0 0 1 -1.813-.8 12.971 12.971 0 0 1 6.044-7.782 13.12 13.12 0 0 1 6.848-1.737 13.061 13.061 0 0 1 1.75-16.095 1 1 0 0 1 1.595 1.174 8.968 8.968 0 0 0 -1.077 4.25 8.821 8.821 0 0 0 17.641 0 8.932 8.932 0 0 0 -1.06-4.212 1 1 0 0 1 1.6-1.173 13.051 13.051 0 0 1 1.726 16.05 13.023 13.023 0 0 1 6.855 1.735 13.036 13.036 0 0 1 6.062 7.827 1 1 0 0 1 -1.814.793 8.983 8.983 0 0 0 -3.14-3.057 8.82 8.82 0 0 0 -8.82 15.277 8.95 8.95 0 0 0 4.182 1.192 1 1 0 0 1 .217 1.968 13.05 13.05 0 0 1 -14.62-6.266 13.066 13.066 0 0 1 -11.385 6.685zm-3.277-22.032a10.818 10.818 0 0 1 6.349 19.593 11.086 11.086 0 0 0 7.367-7 1 1 0 0 1 .944-.671 1 1 0 0 1 .944.67 11.093 11.093 0 0 0 7.342 6.987 10.82 10.82 0 0 1 10.786-18.631 11.069 11.069 0 0 0 -10.007-2.824 1 1 0 0 1 -.946-1.657 11.082 11.082 0 0 0 2.641-10.138 10.821 10.821 0 0 1 -21.528-.024 11.072 11.072 0 0 0 2.64 10.168 1 1 0 0 1 -.944 1.657 11.081 11.081 0 0 0 -9.983 2.808 10.739 10.739 0 0 1 4.395-.938z"/><path d="m36.985 42.442a3.825 3.825 0 1 1 3.826-3.825 3.829 3.829 0 0 1 -3.826 3.825zm0-5.65a1.825 1.825 0 1 0 1.826 1.825 1.827 1.827 0 0 0 -1.826-1.825z"/></svg>