<svg id="Capa_1" enable-background="new 0 0 512 512" height="512" viewBox="0 0 512 512" width="512" xmlns="http://www.w3.org/2000/svg"><g><g><path d="m445.638 83.915c23.136 0 41.958-18.822 41.958-41.958s-18.823-41.957-41.958-41.957-41.957 18.822-41.957 41.958 18.822 41.957 41.957 41.957zm0-63.915c12.107 0 21.958 9.85 21.958 21.958s-9.851 21.958-21.958 21.958-21.957-9.85-21.957-21.958 9.849-21.958 21.957-21.958z"/><path d="m477.182 163.725c-5.045-4.951-11.289-8.157-18.026-9.31-12.644-32.378-39.825-56.366-72.561-65.595.362-2.547.545-5.125.545-7.717 0-30.01-24.415-54.426-54.426-54.426-22.679 0-42.802 14.07-50.8 34.854-7.37-1.341-15.04-1.538-22.764-.472-25.034 3.456-45.831 19.476-55.565 41.966-15.515-5.358-31.127-5.53-44.07-.279-13.71 5.561-24.211 16.559-31.285 32.739-5.707-4.591-12.91-7.406-20.732-7.553-9.141-.191-17.784 3.304-24.387 9.784-5.362 5.263-8.871 12.167-10.01 19.489-4.235-2.007-8.941-3.17-13.895-3.264-9.129-.176-17.785 3.303-24.389 9.783-6.618 6.495-10.414 15.492-10.414 24.685 0 0 .015 162.53.044 163.317 1.05 28.735 23.021 52.433 52.242 56.35.148.02.298.037.447.05 11.171.988 19.595 10.095 19.595 21.183v72.691c0 5.523 4.478 10 10 10h75.041c5.522 0 10-4.477 10-10v-71.941c0-8.396 13.442-17.751 25.25-20.483 14.13 41.411 47.247 64.471 96.55 66.944.452.022 1.375.033 6.653.059v25.421c0 5.523 4.478 10 10 10h75.041c5.522 0 10-4.477 10-10v-72.691c0-11.088 8.424-20.194 19.595-21.183.149-.013.299-.03.447-.05 29.221-3.917 51.192-27.615 52.242-56.349.029-.789.044-163.318.044-163.318.002-9.192-3.794-18.189-10.412-24.684zm-144.468-117.048c18.982 0 34.426 15.443 34.426 34.426 0 1.359-.079 2.711-.236 4.051-3.43-.321-6.898-.485-10.394-.485-10.372 0-20.57 1.42-30.418 4.229-6.73-9.021-15.382-16.161-25.168-21.041 5.273-12.67 17.757-21.18 31.79-21.18zm-160.941 383.382v61.941h-55.041v-62.691c0-21.442-16.139-39.059-37.581-41.082-19.438-2.697-34.025-18.325-34.717-37.232-.02-.544-.03-162.586-.03-162.586 0-3.858 1.611-7.652 4.422-10.41 2.739-2.688 6.256-4.138 10.004-4.062 7.647.144 13.868 6.395 13.868 13.933v75.312c0 5.523 4.478 10 10 10s10-4.477 10-10v-100.781c0-3.858 1.611-7.652 4.422-10.41 2.741-2.689 6.342-4.124 10.003-4.062 7.646.144 13.868 6.394 13.868 13.933 0 0-.003 91.672.001 92.208.205 29.866 20.232 55.692 48.182 64.194-1.836 8.344-2.17 16.987-.948 25.472 2.918 20.875 14.735 39.167 31.776 50.627-14.934 6.846-28.229 19.56-28.229 35.696zm142.698 26.482c-44.935-2.284-72.401-23.974-81.635-64.47-.805-3.527-3.451-6.345-6.921-7.368-20.129-5.937-34.999-23.104-37.888-43.774-1.285-8.926-.191-18.065 3.163-26.428 1.155-2.881.907-6.135-.671-8.808-1.578-2.672-4.309-4.46-7.39-4.84-23.859-2.935-41.975-23.106-42.138-46.916-.002-.24-.002-.479-.003-.717.001-.042.002-.084.002-.126v-.532c.152-30.1 11.995-38.669 20.955-42.491 4.095-1.747 6.541-5.991 6.002-10.409-.54-4.419-3.935-7.949-8.329-8.66-6.688-1.082-11.431-4.109-14.497-9.254-4.721-7.918-4.997-20.461-.722-32.733 4.994-14.337 12.609-23.668 22.632-27.733 10.54-4.274 24.41-2.798 38.059 4.047 2.711 1.359 5.893 1.416 8.648.152 2.757-1.263 4.791-3.708 5.532-6.649 5.085-20.187 21.812-35.087 42.613-37.958 20.767-2.868 40.954 6.908 51.428 24.905 2.437 4.188 7.523 6.023 12.072 4.364 9.945-3.631 20.418-5.473 31.125-5.473 25.164 0 48.507 10.351 65.146 27.594-5.206-2.941-11.089-4.451-17.153-4.329-8.03.15-15.409 3.113-21.186 7.924-6.148-7.496-15.433-12.379-25.802-12.573-9.119-.176-17.784 3.304-24.387 9.784-.568.558-1.116 1.134-1.642 1.727-5.923-5.361-13.726-8.702-22.266-8.862-9.088-.189-17.783 3.303-24.387 9.784-6.617 6.495-10.413 15.492-10.413 24.685v43.617c-6.864-4.435-15.049-7.012-23.829-7.012-13.49 0-24.465 10.924-24.465 24.353 0 0 .015 129.582.044 130.368 1.05 28.735 23.021 52.434 52.242 56.35.233.032.467.055.702.069l10.962.688c12.608.791 30.149 11.633 30.149 21.225v26.52c-2.577-.015-5.148-.029-5.752-.041zm153.094-105.544c-.691 18.906-15.278 34.534-34.717 37.231-21.442 2.022-37.581 19.64-37.581 41.082v62.69h-55.041v-61.941c0-23.617-28.479-39.905-48.897-41.186l-10.591-.664c-19.37-2.75-33.892-18.35-34.581-37.213-.02-.544-.03-129.637-.03-129.637 0-2.4 2.003-4.353 4.465-4.353 12.94 0 23.506 10.242 23.822 22.948l-.014 59.559c-.001 5.523 4.475 10.001 9.998 10.002h.002c5.521 0 9.999-4.476 10-9.998l.021-139.117c0-3.858 1.611-7.652 4.422-10.411 2.74-2.688 6.249-4.121 10.003-4.062 7.646.144 13.868 6.394 13.868 13.933v66.326c0 5.523 4.478 10 10 10s10-4.477 10-10v-68.434c0-3.859 1.612-7.654 4.423-10.412 2.74-2.689 6.281-4.127 10.003-4.062 7.647.144 13.869 6.394 13.869 13.933v110.399c0 5.523 4.478 10 10 10s10-4.477 10-10v-105.747c0-7.539 6.222-13.79 13.868-13.933 3.713-.063 7.264 1.373 10.003 4.062 2.811 2.758 4.422 6.552 4.422 10.41v105.208c0 5.523 4.478 10 10 10s10-4.477 10-10v-79.738c0-7.539 6.221-13.789 13.868-13.933 3.689-.069 7.264 1.373 10.004 4.062 2.811 2.758 4.422 6.552 4.422 10.41 0-.001-.011 162.04-.031 162.586z"/><path d="m341.95 267.75c-1.635-3.926-5.702-6.455-9.949-6.148-4.212.305-7.846 3.316-8.941 7.391-1.059 3.944.461 8.279 3.777 10.675 3.366 2.432 7.973 2.517 11.433.221 3.933-2.611 5.464-7.788 3.68-12.139z"/></g></g></svg>