<svg id="Capa_1" enable-background="new 0 0 512 512" height="512" viewBox="0 0 512 512" width="512" xmlns="http://www.w3.org/2000/svg"><g><g><path d="m177.929 131.032c-12.095 0-22.963 4.78-30.368 12.338-7.405-7.558-18.274-12.338-30.368-12.338-5.523 0-10 4.478-10 10s4.477 10 10 10c11.231 0 20.368 7.219 20.368 16.091 0 5.522 4.477 10 10 10s10-4.478 10-10c0-8.872 9.137-16.091 20.369-16.091 5.523 0 10-4.478 10-10s-4.478-10-10.001-10z"/><path d="m502 416.573h-9.681v-355.689c0-23.683-19.268-42.95-42.95-42.95h-386.738c-23.683 0-42.95 19.268-42.95 42.95v355.689h-9.681c-5.523 0-10 4.478-10 10v57.493c0 5.522 4.477 10 10 10h492c5.522 0 10-4.478 10-10v-57.493c0-5.522-4.478-10-10-10zm-462.319-355.689c0-12.655 10.295-22.95 22.95-22.95h386.738c12.654 0 22.95 10.295 22.95 22.95v355.689h-23.999v-344.639c0-5.522-4.478-10-10-10h-364.64c-5.523 0-10 4.478-10 10v344.64h-24v-355.69zm264.118 266.854c-.423-1.915-.638-3.892-.638-5.874 0-14.914 12.133-27.048 27.047-27.048s27.048 12.134 27.048 27.048c0 2.283-.283 4.549-.843 6.734-1.314 5.133 1.604 10.4 6.653 12.008 6.323 2.014 10.572 7.832 10.572 14.478 0 8.375-6.813 15.189-15.188 15.189h-78.94c-1.738 0-3.432-.288-5.029-.849v-28.682c1.598-.56 3.291-.848 5.029-.848h14.524c3.031 0 5.898-1.375 7.797-3.738 1.898-2.361 2.621-5.458 1.968-8.418zm-29.319 62.181c1.652.235 3.332.354 5.029.354h78.94c19.403 0 35.188-15.786 35.188-35.189 0-12.384-6.376-23.529-16.503-29.842.08-1.123.12-2.249.12-3.378 0-25.942-21.105-47.048-47.048-47.048-25.283 0-45.972 20.045-47.006 45.079h-3.692c-1.698 0-3.377.119-5.029.354v-59.549c0-5.522-4.478-10-10-10s-10 4.478-10 10v155.872h-20.5v-142.3c0-5.522-4.477-10-10-10h-140.299v-30.04h140.3c5.523 0 10-4.478 10-10v-142.3h20.5v88.355c0 5.522 4.478 10 10 10s10-4.478 10-10v-88.353h153.84v50.745c-12.005-11.76-28.435-19.021-46.528-19.021-36.684 0-66.528 29.845-66.528 66.528s29.845 66.528 66.528 66.528c18.093 0 34.523-7.261 46.528-19.021v188.88h-153.84zm-190.8 26.654v-132.3h130.3v37.505c-9.273 1.443-17.469 5.724-23.425 11.803-7.405-7.558-18.274-12.338-30.368-12.338-5.523 0-10 4.478-10 10s4.477 10 10 10c11.231 0 20.368 7.218 20.368 16.09 0 5.522 4.477 10 10 10s10-4.478 10-10c0-6.947 5.602-12.879 13.425-15.127v74.367zm0-202.34v-132.3h130.3v132.3zm344.64-34.047c0 25.656-20.872 46.528-46.528 46.528s-46.528-20.872-46.528-46.528 20.872-46.528 46.528-46.528 46.528 20.871 46.528 46.528zm63.68 293.88h-472v-37.493h472z"/><path d="m273.71 211.85c-1.637-3.925-5.688-6.457-9.941-6.148-4.155.302-7.744 3.233-8.894 7.232-1.15 3.998.384 8.456 3.783 10.871 3.369 2.394 7.927 2.462 11.372.185 3.944-2.607 5.461-7.793 3.68-12.14z"/></g></g></svg>