<svg id="Capa_1" enable-background="new 0 0 512 512" height="512" viewBox="0 0 512 512" width="512" xmlns="http://www.w3.org/2000/svg"><g><path d="m392.758 54.437c-2.387-3.393-7.075-4.21-10.47-1.821-3.394 2.389-4.21 7.076-1.822 10.47 17.287 24.567 24.954 55.331 21.592 86.625-5.588 52.01-54.932 93.058-72.657 106.241l-29.013-47.485c14.939-5.821 25.218-20.242 25.218-37.127 0-21.991-17.89-39.881-39.881-39.881-9.873 0-19.155 3.583-26.331 9.913l-17.085-27.963c-1.472-2.409-4.172-3.793-6.985-3.575-27.913 2.131-52.307-3.224-72.509-15.92-.001-.001-.003-.002-.004-.002-14.62-9.189-27.102-22.211-37.099-38.702-2.656-4.382-.085-7.862.766-8.825.868-.981 4.073-4.018 8.846-1.875 16.486 7.403 32.332 9.253 47.102 5.497 12.203-3.105 21.594-8.972 30.676-14.647 17.091-10.679 34.767-21.727 76.38-20.183 27.624 1.021 52.543 10.382 72.062 27.071 3.155 2.698 7.899 2.325 10.595-.828 2.698-3.155 2.327-7.898-.828-10.595-22.123-18.916-50.227-29.52-81.273-30.667-46.229-1.715-66.771 11.13-84.9 22.456-8.846 5.527-16.486 10.301-26.417 12.827-11.398 2.899-23.927 1.338-37.24-4.641-9.255-4.156-19.564-1.947-26.263 5.631-6.655 7.527-7.581 17.956-2.359 26.571 10.421 17.191 23.342 31.073 38.442 41.333v111.401c0 4.139 3.361 7.498 7.5 7.515.235.001 20.016.206 31.45 9.732l-25.408 12.249c-3.81 1.739-5.416 6.762-3.322 10.388 12.042 21.911 33.189 37.118 57.445 41.642v29.531c-20.456 20.599-37.741 48.004-49.639 79.077-1.484 3.876.454 8.221 4.331 9.705.884.338 1.792.499 2.685.499 3.023 0 5.874-1.838 7.02-4.83 28.162-73.551 85.831-119.679 131.294-105.015 13.968 4.506 26.16 17.887 36.241 39.773 1.737 3.769 6.197 5.419 9.97 3.681 3.769-1.736 5.418-6.2 3.682-9.969-8.363-18.155-18.364-31.482-29.854-39.84v-29.172c6.454-4.547 21.083-15.518 36.368-31.518 26.902-28.161 42.786-58.545 45.936-87.865 3.754-34.925-4.855-69.33-24.242-96.882zm-73.089 237.62c-.132-.044-.262-.092-.394-.135-26.389-8.514-56.48-1.055-84.737 20.996-.181.141-.359.288-.539.43v-22.593c0-3.855-2.916-7.084-6.751-7.476-19.49-1.99-37.047-12.339-48.317-28.157l26.451-12.752c1.866-.899 3.277-2.528 3.902-4.502.624-1.974.407-4.119-.602-5.927-9.545-17.113-30.913-21.884-42.349-23.212v-95.731c19.253 9.261 41.213 13.329 65.516 12.112l20.091 32.883c2.67 4.696 10.035 4.733 12.765.096 4.592-7.266 12.45-11.604 21.021-11.604 13.703 0 24.852 11.149 24.852 24.852 0 12.762-9.946 23.632-22.643 24.747-5.399.311-8.71 6.877-5.755 11.404l37.489 61.358z"/><path d="m366.065 363.916c-3.974 1.198-6.223 5.39-5.025 9.364 14.129 46.859 17.519 103.49 18.301 123.689h-46.819v-96.72c0-4.15-3.364-7.515-7.515-7.515s-7.515 3.365-7.515 7.515v50.122h-78.462v-50.122c0-4.15-3.364-7.515-7.515-7.515-4.15 0-7.515 3.365-7.515 7.515v96.72h-57.563c.551-19.6 3.257-39.02 8.066-57.832 1.027-4.021-1.399-8.114-5.42-9.142-4.019-1.025-8.113 1.4-9.142 5.42-5.732 22.429-8.639 45.667-8.639 69.068 0 4.15 3.364 7.515 7.515 7.515h228.263c4.07.081 7.645-3.535 7.514-7.604-.036-3.057-1.101-75.543-19.165-135.453-1.199-3.974-5.392-6.225-9.364-5.025zm-48.572 133.053h-78.463v-31.569h78.462v31.569z"/><path d="m219.686 183.67-7.235-4.072 6.995-3.609c3.688-1.903 5.135-6.435 3.232-10.124-1.902-3.688-6.436-5.135-10.124-3.232l-19.381 9.999c-2.455 1.267-4.018 3.779-4.067 6.542-.05 2.763 1.419 5.33 3.827 6.685l19.381 10.908c1.165.656 2.43.968 3.679.968 2.626 0 5.176-1.379 6.555-3.83 2.036-3.617.754-8.199-2.862-10.235z"/><path d="m138.722 244.209c-1.592-3.833-5.988-5.65-9.822-4.058l-21.621 8.979c-3.833 1.591-5.65 5.989-4.058 9.822 1.201 2.891 3.997 4.634 6.943 4.634.96 0 1.937-.185 2.879-.577l21.621-8.979c3.833-1.591 5.65-5.988 4.058-9.821z"/><path d="m127.125 225.473c3.373 0 6.44-2.288 7.288-5.709.998-4.028-1.458-8.103-5.486-9.102l-25.464-6.312c-4.028-.999-8.103 1.458-9.102 5.486s1.458 8.103 5.486 9.102l25.464 6.312c.607.151 1.215.223 1.814.223z"/><path d="m151.363 266.333c-3.356-2.445-8.055-1.707-10.498 1.648l-15.449 21.203c-2.444 3.354-1.706 8.055 1.648 10.498 3.32 2.428 8.041 1.728 10.498-1.648l15.449-21.203c2.445-3.354 1.706-8.054-1.648-10.498z"/></g></svg>