<svg id="Capa_1" enable-background="new 0 0 512 512" height="512" viewBox="0 0 512 512" width="512" xmlns="http://www.w3.org/2000/svg"><g><path d="m358.389 364.092c-3.974 1.196-6.227 5.387-5.031 9.361 14.085 46.821 17.468 103.339 18.25 123.516h-46.82v-96.721c0-4.15-3.364-7.515-7.515-7.515-4.15 0-7.515 3.365-7.515 7.515v50.122h-78.462v-50.122c0-4.15-3.365-7.515-7.515-7.515s-7.515 3.365-7.515 7.515v96.721h-57.563c.551-19.613 3.261-39.045 8.074-57.866 1.028-4.021-1.398-8.114-5.418-9.142-4.021-1.029-8.114 1.398-9.142 5.418-5.739 22.439-8.649 45.689-8.649 69.105 0 4.15 3.364 7.515 7.515 7.515h228.263c4.07.081 7.644-3.535 7.514-7.604-.037-3.05-1.099-75.393-19.111-135.271-1.195-3.975-5.386-6.229-9.36-5.032zm-48.631 132.877h-78.462v-31.569h78.462z"/><path d="m208.289 165.159c-2.934-2.934-7.693-2.934-10.627 0l-3.976 3.976-3.976-3.976c-2.934-2.935-7.693-2.935-10.627 0-2.935 2.934-2.935 7.692 0 10.627l3.976 3.977-3.976 3.977c-2.935 2.935-2.935 7.693 0 10.627 2.934 2.935 7.693 2.935 10.627 0l3.976-3.976 3.976 3.976c2.934 2.935 7.692 2.934 10.627 0 2.935-2.935 2.935-7.692 0-10.627l-3.976-3.977 3.976-3.977c2.935-2.934 2.935-7.692 0-10.627z"/><path d="m110.778 96.148c-21.624-4.359-39.339-9.842-51.23-15.856-9.781-4.947-15.62-10.346-15.62-14.442 0-3.19 3.646-7.307 10.003-11.293 7.932-4.975 20.099-9.787 35.183-13.915 4.003-1.095 6.36-5.229 5.264-9.232-1.095-4.003-5.228-6.359-9.232-5.264-37.323 10.215-56.247 23.573-56.247 39.704 0 24.072 42.912 37.774 78.91 45.031.501.101 1 .15 1.493.15 3.504 0 6.639-2.464 7.359-6.031.819-4.069-1.814-8.032-5.883-8.852z"/><path d="m455.954 65.85c0-13.971-14.287-25.916-42.463-35.503-3.931-1.339-8.199.764-9.535 4.693-1.337 3.929.764 8.198 4.693 9.535 23.823 8.106 32.275 16.527 32.275 21.275 0 4.788-8.884 14.306-38.4 23.288-8.587-25.34-24.182-47.632-45.387-63.467-3.325-2.483-8.035-1.8-10.518 1.524-2.483 3.325-1.801 8.034 1.525 10.518 18.498 13.814 32.173 33.234 39.853 55.367-7.135 1.731-15.148 3.41-24.144 4.995-4.088.72-6.817 4.617-6.097 8.704.642 3.647 3.813 6.212 7.392 6.212.432 0 .872-.038 1.313-.115 9.466-1.668 17.969-3.446 25.611-5.308 2.959 13.524 3.799 27.759 2.253 42.141-5.587 52.005-54.93 93.057-72.657 106.242l-29.032-47.517c15.976-6.32 26.647-22.629 25.083-40.64-1.658-19.094-17.319-34.658-36.43-36.203-10.996-.891-21.614 2.745-29.621 9.79l-17.091-27.973c-1.472-2.41-4.167-3.793-6.985-3.575-27.911 2.133-52.307-3.224-72.51-15.92-14.621-9.189-27.105-22.212-37.103-38.704-2.656-4.382-.086-7.864.766-8.826.867-.982 4.072-4.02 8.845-1.875 16.486 7.404 32.333 9.254 47.102 5.497 12.203-3.105 21.594-8.972 30.676-14.647 17.092-10.68 34.758-21.726 76.381-20.183 14.89.55 28.976 3.485 41.868 8.723 3.845 1.564 8.228-.288 9.79-4.133s-.288-8.228-4.133-9.791c-14.521-5.9-30.324-9.203-46.971-9.818-46.221-1.7-66.771 11.13-84.899 22.457-8.846 5.527-16.486 10.3-26.418 12.827-11.398 2.899-23.927 1.338-37.24-4.641-9.254-4.156-19.564-1.947-26.263 5.631-6.655 7.527-7.581 17.957-2.358 26.572 10.421 17.191 23.342 31.073 38.442 41.332v111.402c0 40.403 28.643 74.331 67.665 81.533v29.525c-20.445 20.588-37.723 47.975-49.619 79.027-1.485 3.875.453 8.221 4.329 9.706.885.339 1.793.499 2.687.499 3.023 0 5.873-1.837 7.019-4.828 28.167-73.521 85.827-119.631 131.277-104.969 14.019 4.522 26.247 17.982 36.348 40.006 1.73 3.772 6.19 5.428 9.963 3.698 3.772-1.73 5.428-6.191 3.698-9.963-8.386-18.286-18.427-31.698-29.971-40.095v-29.16c15.331-10.745 75.567-56.686 82.304-119.396 1.748-16.266.749-32.378-2.687-47.682 39.816-12.05 49.374-26.602 49.374-37.787zm-144.019 226.206c-.132-.044-.262-.092-.395-.135-26.382-8.511-56.468-1.058-84.721 20.983-.186.145-.37.297-.556.443v-22.593c0-3.855-2.916-7.084-6.751-7.476-32.458-3.314-57.451-28.902-60.577-60.78 6.241-.047 15.317 1.482 18.742 10.12 3.52 9.149 17.683 3.441 13.971-5.54-6.186-15.6-21.361-19.659-33.049-19.611v-94.492c19.254 9.264 41.209 13.348 65.515 12.134l20.092 32.883c2.672 4.701 10.008 4.711 12.765.097 4.966-7.857 13.823-12.268 23.107-11.52 11.891.962 21.637 10.645 22.669 22.523 1.188 13.686-8.925 25.794-22.545 26.991-5.398.311-8.712 6.877-5.755 11.404l37.489 61.358v23.211z"/><path d="m72.853 121.957c-14.142 0-25.648 11.505-25.648 25.648 0 14.142 11.505 25.648 25.648 25.648 14.142 0 25.648-11.505 25.648-25.648 0-14.142-11.505-25.648-25.648-25.648zm0 36.266c-5.855 0-10.618-4.763-10.618-10.618s4.763-10.618 10.618-10.618 10.618 4.763 10.618 10.618c.001 5.855-4.762 10.618-10.618 10.618z"/><path d="m457.454 103.824c-14.142 0-25.648 11.505-25.648 25.648s11.505 25.648 25.648 25.648c14.142 0 25.647-11.505 25.647-25.648s-11.505-25.648-25.647-25.648zm0 36.266c-5.855 0-10.618-4.763-10.618-10.618s4.763-10.618 10.618-10.618 10.618 4.763 10.618 10.618-4.763 10.618-10.618 10.618z"/></g></svg>