<svg id="Capa_1" enable-background="new 0 0 511.068 511.068" height="512" viewBox="0 0 511.068 511.068" width="512" xmlns="http://www.w3.org/2000/svg"><g><path d="m488.298 313.761c4.142 0 7.5-3.357 7.5-7.5v-23.498c0-66.229-53.881-120.111-120.11-120.111-40.145 0-72.806 32.661-72.806 72.807v12.709h-1.478c-11.784 0-21.37-10.271-21.37-22.896v-131.824c0-4.143-3.358-7.5-7.5-7.5s-7.5 3.357-7.5 7.5v131.823c0 20.896 16.315 37.896 36.37 37.896h1.478v20h-1.478c-15.463 0-29.904-6.347-40.663-17.871-1.417-1.518-3.4-2.38-5.476-2.382-.002 0-.004 0-.006 0-2.074 0-4.056.859-5.474 2.373-10.8 11.53-25.404 17.88-41.122 17.88h-.477v-20h.477c20.055 0 36.371-16.315 36.371-36.37v-219.297c0-4.143-3.358-7.5-7.5-7.5s-7.5 3.357-7.5 7.5v219.297c0 11.783-9.587 21.37-21.371 21.37h-.477v-12.709c0-40.146-32.661-72.807-72.806-72.807-66.229 0-120.11 53.882-120.11 120.111v132.206c0 52.989 43.11 96.1 96.1 96.1 53.385 0 96.816-43.432 96.816-96.816v-9.804c0-4.143-3.358-7.5-7.5-7.5s-7.5 3.357-7.5 7.5v9.804c0 45.113-36.703 81.816-81.816 81.816-44.718 0-81.1-36.381-81.1-81.1v-132.205c0-57.959 47.152-105.111 105.11-105.111 31.874 0 57.806 25.932 57.806 57.807v68.358h-25.896c-8.649 0-16.78 3.368-22.896 9.483l-44.875 44.876c-2.564 2.564-3.977 5.975-3.977 9.601v29.848c0 4.143 3.358 7.5 7.5 7.5s7.5-3.357 7.5-7.5v-29.259l13.074-13.074 16.845 19.591v43.927c0 4.143 3.358 7.5 7.5 7.5s7.5-3.357 7.5-7.5v-43.927c0-3.57-1.282-7.028-3.609-9.738l-17.601-20.487 20.749-20.751c3.283-3.283 7.647-5.091 12.289-5.091h25.897v53.67c0 4.143 3.358 7.5 7.5 7.5s7.5-3.357 7.5-7.5v-74.319h.477c17.083 0 33.676-6.249 46.572-17.354 12.885 11.241 29.021 17.354 46.169 17.354h1.478v116.085c0 53.385 43.432 96.816 96.816 96.816 52.989 0 96.1-43.11 96.1-96.1v-76.746c0-4.143-3.358-7.5-7.5-7.5s-7.5 3.357-7.5 7.5v76.746c0 44.719-36.381 81.1-81.1 81.1-45.114 0-81.816-36.703-81.816-81.816v-95.436h26.897c4.642 0 9.006 1.808 12.289 5.091l20.749 20.749-17.601 20.488c-2.327 2.709-3.609 6.167-3.609 9.737v43.927c0 4.143 3.358 7.5 7.5 7.5s7.5-3.357 7.5-7.5l-.013-43.89 16.861-19.625 13.072 13.072v29.259c0 4.143 3.358 7.5 7.5 7.5s7.5-3.357 7.5-7.5v-29.848c0-3.626-1.412-7.036-3.978-9.603l-34.871-34.871 16.783-16.784c1.601-1.601 3.729-2.482 5.992-2.482h25.903c4.142 0 7.5-3.357 7.5-7.5s-3.358-7.5-7.5-7.5h-25.903c-6.269 0-12.164 2.441-16.598 6.875l-16.799 16.799c-6.041-5.737-13.914-8.895-22.277-8.895h-26.897v-68.358c0-31.875 25.932-57.807 57.806-57.807 57.958 0 105.11 47.152 105.11 105.111v23.498c0 4.144 3.358 7.502 7.5 7.502z"/><path d="m272.534 68.986c4.142 0 7.5-3.357 7.5-7.5v-53.986c0-4.143-3.358-7.5-7.5-7.5s-7.5 3.357-7.5 7.5v53.986c0 4.143 3.358 7.5 7.5 7.5z"/><path d="m81.043 267.565 17.267 17.267c2.069 2.069 4.819 3.209 7.746 3.209s5.677-1.14 7.745-3.208l4.369-4.369 4.369 4.369c4.271 4.27 11.219 4.27 15.49 0l17.268-17.268c4.271-4.271 4.271-11.22 0-15.49l-4.368-4.369 4.369-4.368c4.27-4.271 4.271-11.219 0-15.491l-17.267-17.267c-2.069-2.069-4.819-3.209-7.746-3.209-2.926 0-5.676 1.14-7.745 3.208l-4.369 4.369-4.368-4.368c-2.069-2.069-4.819-3.209-7.746-3.209-2.926 0-5.677 1.14-7.745 3.208l-17.269 17.269c-4.269 4.271-4.269 11.219.001 15.49l4.369 4.368-4.368 4.368c-4.271 4.271-4.272 11.219-.002 15.491zm25.013-43.517 6.811 6.811c2.929 2.928 7.678 2.928 10.606 0l6.811-6.811 11.545 11.545-6.811 6.81c-2.929 2.93-2.929 7.678 0 10.606l6.81 6.811-11.545 11.545-6.81-6.811c-2.929-2.928-7.678-2.928-10.606 0l-6.811 6.811-11.544-11.545 6.81-6.812c2.929-2.929 2.929-7.677 0-10.606l-6.811-6.81z"/><path d="m103.042 480.229c12.279 0 22.27-9.99 22.27-22.27s-9.99-22.269-22.27-22.269-22.269 9.989-22.269 22.269 9.99 22.27 22.269 22.27zm0-29.538c4.008 0 7.27 3.261 7.27 7.269 0 4.009-3.261 7.27-7.27 7.27s-7.269-3.261-7.269-7.27c0-4.008 3.261-7.269 7.269-7.269z"/><path d="m409.026 435.691c-12.279 0-22.27 9.989-22.27 22.269s9.99 22.27 22.27 22.27 22.269-9.99 22.269-22.27-9.989-22.269-22.269-22.269zm0 29.538c-4.008 0-7.27-3.261-7.27-7.27 0-4.008 3.261-7.269 7.27-7.269s7.269 3.261 7.269 7.269c0 4.01-3.26 7.27-7.269 7.27z"/><path d="m337.935 243.914c0 12.279 9.99 22.27 22.27 22.27s22.269-9.99 22.269-22.27-9.99-22.269-22.269-22.269-22.27 9.99-22.27 22.269zm29.538 0c0 4.009-3.261 7.27-7.269 7.27s-7.27-3.261-7.27-7.27c0-4.008 3.261-7.269 7.27-7.269s7.269 3.261 7.269 7.269z"/></g></svg>